<svg xmlns="http://www.w3.org/2000/svg" id="OBJECTS" viewBox="0 0 202.04 137.62"><defs><style>.cls-1{fill:#30475e}.cls-2{fill:#f05454}.cls-3{fill:#722b2b}</style></defs><path d="M93.9 1.87c0 17.6-8.88 34.01-23.62 43.63l-33.7 22.01.07.04-21.56 14.13-7.66-4.99C.8 72.37.8 62.66 7.43 58.33z" class="cls-2"/><path d="M93.9 133.15 15.08 81.68l21.56-14.13 33.64 21.96a52.1 52.1 0 0 1 23.62 43.63Z" class="cls-1"/><path d="M108.71 1.87c0 17.6 8.88 34.01 23.62 43.63l33.7 22.01-.07.04 21.56 14.13 7.66-4.99c6.63-4.32 6.63-14.03 0-18.36z" class="cls-2"/><path d="m108.71 133.15 78.82-51.47-21.56-14.13-33.64 21.96a52.1 52.1 0 0 0-23.62 43.63Z" class="cls-1"/><path d="M98.59 58.56h.09c0-.02 0-.03-.01-.05l9.15-5.19c7.91-4.49 10.69-14.55 6.2-22.46L90.26 44.34l-.3.18c-3.01 2.4-3.64 14.04 8.63 14.04M112.2 78.91c-1.77-2.43-5.17-4.65-8.27-3.58s-10.96 6.32-10.96 6.32c-7.88 4.55-10.58 14.62-6.04 22.5s25.72-14.84 25.72-14.84l.51-.32c1.45-3.18 1.1-7.25-.96-10.09Z" class="cls-3"/><path d="M119.77 70.83c-1.98-6.97-7.94-11.68-15.18-11.99l-5.87-.26h-.03v-.01h-.09c-12.27 0-11.64-11.64-8.63-14.04-6.17 3.86-9.07 11.18-7.22 18.22s7.99 11.98 15.26 12.3l5.87.26h.03c0 .01 0 .03.01.04 3.1-1.08 6.51 1.14 8.27 3.58 2.06 2.84 2.41 6.91.96 10.09 5.99-4.07 8.59-11.21 6.61-18.18Z" class="cls-2"/></svg>